<?xml version="1.0" encoding="utf-8"?>
<!-- Generator: Adobe Illustrator 15.0.2, SVG Export Plug-In . SVG Version: 6.00 Build 0)  -->
<!DOCTYPE svg PUBLIC "-//W3C//DTD SVG 1.0//EN" "http://www.w3.org/TR/2001/REC-SVG-20010904/DTD/svg10.dtd">
<svg version="1.0" id="Layer_1" xmlns="http://www.w3.org/2000/svg" xmlns:xlink="http://www.w3.org/1999/xlink" x="0px" y="0px"
	 width="474.094px" height="224.555px" viewBox="0 0 474.094 224.555" enable-background="new 0 0 474.094 224.555"
	 xml:space="preserve">
<g>
	<path d="M61.09,215.262c0.914-0.609,1.878-0.914,2.895-0.914c1.116,0,2.057,0.407,2.818,1.219c0.762,0.814,1.143,1.778,1.143,2.895
		c0,1.119-0.381,2.057-1.143,2.818s-1.702,1.143-2.818,1.143c-1.017,0-1.98-0.305-2.895-0.914H0.914V6.855
		C0.305,5.941,0,5.027,0,4.113c0-1.116,0.405-2.081,1.219-2.895C2.03,0.407,2.995,0,4.113,0C5.229,0,6.17,0.407,6.932,1.219
		c0.762,0.814,1.143,1.778,1.143,2.895c0,0.914-0.305,1.828-0.914,2.742v208.406H61.09z"/>
	<path d="M139.09,133.91H81.047v54.844c0,3.656,0.431,7.263,1.295,10.816c0.862,3.557,2.285,6.729,4.266,9.521
		c1.98,2.795,4.646,5.054,7.998,6.779c3.352,1.729,7.465,2.59,12.34,2.59c4.772,0,8.784-0.762,12.035-2.285
		c3.249-1.523,5.865-3.527,7.846-6.018c1.98-2.487,3.428-5.355,4.342-8.607c0.914-3.249,1.471-6.601,1.676-10.055
		c-0.305-0.305-0.56-0.709-0.762-1.219c-0.205-0.507-0.305-0.914-0.305-1.219c0-1.116,0.404-2.08,1.219-2.895
		c0.812-0.812,1.775-1.219,2.895-1.219c1.116,0,2.08,0.407,2.895,1.219c0.812,0.814,1.219,1.778,1.219,2.895
		c0,0.305-0.076,0.712-0.229,1.219c-0.152,0.51-0.381,0.914-0.686,1.219c-0.305,4.266-1.043,8.379-2.209,12.34
		c-1.169,3.961-2.971,7.465-5.408,10.512s-5.663,5.511-9.674,7.389c-4.013,1.878-8.964,2.818-14.854,2.818
		c-6.094,0-11.197-1.043-15.311-3.123s-7.415-4.799-9.902-8.15c-2.49-3.352-4.266-7.16-5.332-11.426s-1.6-8.631-1.6-13.102V98.262
		c0-4.468,0.533-8.836,1.6-13.102s2.842-8.074,5.332-11.426c2.487-3.352,5.789-6.067,9.902-8.15
		c4.113-2.081,9.217-3.123,15.311-3.123s11.171,1.042,15.234,3.123c4.061,2.083,7.362,4.799,9.902,8.15
		c2.537,3.352,4.342,7.16,5.408,11.426s1.6,8.634,1.6,13.102V133.91z M132.844,127.664V98.262c0-3.554-0.407-7.107-1.219-10.664
		c-0.814-3.554-2.209-6.727-4.189-9.521c-1.98-2.792-4.646-5.077-7.998-6.855c-3.352-1.776-7.517-2.666-12.492-2.666
		c-4.875,0-8.988,0.89-12.34,2.666c-3.352,1.778-6.018,4.063-7.998,6.855c-1.98,2.795-3.404,5.968-4.266,9.521
		c-0.864,3.557-1.295,7.11-1.295,10.664v29.402H132.844z"/>
	<path d="M191.268,218.766c0.404,0.814,0.609,1.424,0.609,1.828c0,1.116-0.407,2.057-1.219,2.818
		c-0.814,0.762-1.778,1.143-2.895,1.143c-1.119,0-2.083-0.381-2.895-1.143c-0.814-0.762-1.219-1.702-1.219-2.818
		c0-0.812,0.1-1.421,0.305-1.828L151.963,69.621c-0.51-0.305-0.864-0.762-1.066-1.371c-0.205-0.609-0.305-1.219-0.305-1.828
		c0-1.116,0.404-2.057,1.219-2.818c0.812-0.762,1.775-1.143,2.895-1.143c1.116,0,2.08,0.381,2.895,1.143
		c0.812,0.762,1.219,1.702,1.219,2.818c0,0.712-0.255,1.423-0.762,2.133l29.707,136.805l29.402-136.805
		c-0.205-0.305-0.305-0.659-0.305-1.066c0-0.405,0-0.762,0-1.066c0-1.116,0.381-2.057,1.143-2.818s1.699-1.143,2.818-1.143
		c1.116,0,2.08,0.381,2.895,1.143c0.812,0.762,1.219,1.702,1.219,2.818c0,1.423-0.51,2.49-1.523,3.199L191.268,218.766z"/>
	<path d="M302.25,133.91h-58.043v54.844c0,3.656,0.431,7.263,1.295,10.816c0.861,3.557,2.285,6.729,4.266,9.521
		c1.98,2.795,4.646,5.054,7.998,6.779c3.352,1.729,7.465,2.59,12.34,2.59c4.772,0,8.783-0.762,12.035-2.285
		c3.249-1.523,5.865-3.527,7.846-6.018c1.98-2.487,3.428-5.355,4.342-8.607c0.914-3.249,1.471-6.601,1.676-10.055
		c-0.305-0.305-0.56-0.709-0.762-1.219c-0.205-0.507-0.305-0.914-0.305-1.219c0-1.116,0.404-2.08,1.219-2.895
		c0.812-0.812,1.775-1.219,2.895-1.219c1.116,0,2.08,0.407,2.895,1.219c0.812,0.814,1.219,1.778,1.219,2.895
		c0,0.305-0.076,0.712-0.229,1.219c-0.152,0.51-0.381,0.914-0.686,1.219c-0.305,4.266-1.043,8.379-2.209,12.34
		c-1.169,3.961-2.971,7.465-5.408,10.512s-5.663,5.511-9.674,7.389c-4.014,1.878-8.965,2.818-14.854,2.818
		c-6.094,0-11.197-1.043-15.311-3.123s-7.415-4.799-9.902-8.15c-2.49-3.352-4.266-7.16-5.332-11.426s-1.6-8.631-1.6-13.102V98.262
		c0-4.468,0.533-8.836,1.6-13.102s2.842-8.074,5.332-11.426c2.487-3.352,5.789-6.067,9.902-8.15
		c4.113-2.081,9.217-3.123,15.311-3.123s11.171,1.042,15.234,3.123c4.061,2.083,7.362,4.799,9.902,8.15
		c2.537,3.352,4.342,7.16,5.408,11.426s1.6,8.634,1.6,13.102V133.91z M296.004,127.664V98.262c0-3.554-0.407-7.107-1.219-10.664
		c-0.814-3.554-2.209-6.727-4.189-9.521c-1.98-2.792-4.646-5.077-7.998-6.855c-3.352-1.776-7.518-2.666-12.492-2.666
		c-4.875,0-8.988,0.89-12.34,2.666c-3.352,1.778-6.018,4.063-7.998,6.855c-1.98,2.795-3.404,5.968-4.266,9.521
		c-0.864,3.557-1.295,7.11-1.295,10.664v29.402H296.004z"/>
	<path d="M331.195,218.004c0.609,0.814,0.914,1.676,0.914,2.59c0,1.116-0.381,2.057-1.143,2.818s-1.702,1.143-2.818,1.143
		c-1.119,0-2.083-0.381-2.895-1.143c-0.814-0.762-1.219-1.702-1.219-2.818c0-0.914,0.305-1.775,0.914-2.59V6.855
		c-0.609-0.914-0.914-1.828-0.914-2.742c0-1.116,0.404-2.081,1.219-2.895C326.065,0.407,327.029,0,328.148,0
		c1.116,0,2.057,0.407,2.818,1.219c0.762,0.814,1.143,1.778,1.143,2.895c0,0.914-0.305,1.828-0.914,2.742V218.004z"/>
	<path d="M474.094,189.973c0,4.471-0.56,8.786-1.676,12.949c-1.119,4.166-2.947,7.846-5.484,11.045
		c-2.54,3.199-5.892,5.766-10.055,7.693c-4.166,1.928-9.243,2.895-15.234,2.895c-6.196,0-11.376-0.967-15.539-2.895
		c-4.166-1.928-7.491-4.494-9.979-7.693c-2.49-3.199-4.266-6.879-5.332-11.045c-1.066-4.163-1.6-8.479-1.6-12.949V97.957
		c0-3.249,0.305-6.498,0.914-9.75c0.609-3.249,1.573-6.296,2.895-9.141c1.318-2.842,3.047-5.432,5.18-7.77
		c2.133-2.335,4.772-4.266,7.922-5.789c-3.149-1.319-5.789-3.071-7.922-5.256c-2.133-2.183-3.861-4.646-5.18-7.389
		c-1.321-2.742-2.285-5.713-2.895-8.912s-0.914-6.422-0.914-9.674c0-4.266,0.533-8.455,1.6-12.568s2.842-7.77,5.332-10.969
		c2.487-3.199,5.812-5.789,9.979-7.77C430.269,0.99,435.448,0,441.645,0c6.193,0,11.35,0.94,15.463,2.818
		c4.113,1.88,7.438,4.394,9.979,7.541c2.537,3.149,4.342,6.779,5.408,10.893s1.6,8.455,1.6,13.025c0,3.251-0.305,6.475-0.914,9.674
		s-1.576,6.17-2.895,8.912c-1.321,2.742-3.1,5.206-5.332,7.389c-2.235,2.185-4.928,3.937-8.074,5.256
		c3.047,1.523,5.66,3.454,7.846,5.789c2.183,2.337,3.961,4.927,5.332,7.77c1.371,2.845,2.385,5.892,3.047,9.141
		c0.659,3.252,0.99,6.501,0.99,9.75V189.973z M442.863,62.461c4.67-0.202,8.607-1.116,11.807-2.742
		c3.199-1.624,5.763-3.732,7.693-6.322c1.928-2.59,3.325-5.534,4.189-8.836c0.861-3.299,1.295-6.727,1.295-10.283
		c0-3.452-0.434-6.855-1.295-10.207c-0.864-3.352-2.338-6.346-4.418-8.988c-2.083-2.64-4.799-4.772-8.15-6.398
		c-3.352-1.624-7.465-2.438-12.34-2.438s-8.988,0.814-12.34,2.438c-3.352,1.626-6.07,3.759-8.15,6.398
		c-2.083,2.642-3.557,5.637-4.418,8.988c-0.864,3.352-1.295,6.755-1.295,10.207c0,3.352,0.431,6.679,1.295,9.979
		c0.861,3.302,2.259,6.272,4.189,8.912c1.928,2.642,4.468,4.799,7.617,6.475c3.146,1.676,7.008,2.616,11.578,2.818h1.523H442.863z
		 M415.441,189.973c0,3.656,0.431,7.187,1.295,10.588c0.861,3.404,2.309,6.451,4.342,9.141c2.03,2.692,4.723,4.825,8.074,6.398
		c3.352,1.576,7.515,2.361,12.492,2.361c4.975,0,9.141-0.785,12.492-2.361c3.352-1.573,6.041-3.706,8.074-6.398
		c2.03-2.689,3.478-5.736,4.342-9.141c0.861-3.401,1.295-6.932,1.295-10.588V97.957c0-3.554-0.434-7.084-1.295-10.588
		c-0.864-3.504-2.312-6.65-4.342-9.445c-2.033-2.792-4.723-5.051-8.074-6.779c-3.352-1.726-7.518-2.59-12.492-2.59
		c-4.978,0-9.141,0.864-12.492,2.59c-3.352,1.728-6.044,3.987-8.074,6.779c-2.033,2.795-3.48,5.941-4.342,9.445
		c-0.864,3.504-1.295,7.034-1.295,10.588V189.973z"/>
</g>
</svg>
