<?xml version="1.0" encoding="utf-8"?>
<!-- Generator: Adobe Illustrator 15.0.2, SVG Export Plug-In . SVG Version: 6.00 Build 0)  -->
<!DOCTYPE svg PUBLIC "-//W3C//DTD SVG 1.0//EN" "http://www.w3.org/TR/2001/REC-SVG-20010904/DTD/svg10.dtd">
<svg version="1.0" id="Layer_1" xmlns="http://www.w3.org/2000/svg" xmlns:xlink="http://www.w3.org/1999/xlink" x="0px" y="0px"
	 width="468.457px" height="224.555px" viewBox="0 0 468.457 224.555" enable-background="new 0 0 468.457 224.555"
	 xml:space="preserve">
<g>
	<path d="M61.09,215.262c0.914-0.609,1.878-0.914,2.895-0.914c1.116,0,2.057,0.407,2.818,1.219c0.762,0.814,1.143,1.778,1.143,2.895
		c0,1.119-0.381,2.057-1.143,2.818s-1.702,1.143-2.818,1.143c-1.017,0-1.98-0.305-2.895-0.914H0.914V6.855
		C0.305,5.941,0,5.027,0,4.113c0-1.116,0.405-2.081,1.219-2.895C2.03,0.407,2.995,0,4.113,0C5.229,0,6.17,0.407,6.932,1.219
		c0.762,0.814,1.143,1.778,1.143,2.895c0,0.914-0.305,1.828-0.914,2.742v208.406H61.09z"/>
	<path d="M139.09,133.91H81.047v54.844c0,3.656,0.431,7.263,1.295,10.816c0.862,3.557,2.285,6.729,4.266,9.521
		c1.98,2.795,4.646,5.054,7.998,6.779c3.352,1.729,7.465,2.59,12.34,2.59c4.772,0,8.784-0.762,12.035-2.285
		c3.249-1.523,5.865-3.527,7.846-6.018c1.98-2.487,3.428-5.355,4.342-8.607c0.914-3.249,1.471-6.601,1.676-10.055
		c-0.305-0.305-0.56-0.709-0.762-1.219c-0.205-0.507-0.305-0.914-0.305-1.219c0-1.116,0.404-2.08,1.219-2.895
		c0.812-0.812,1.775-1.219,2.895-1.219c1.116,0,2.08,0.407,2.895,1.219c0.812,0.814,1.219,1.778,1.219,2.895
		c0,0.305-0.076,0.712-0.229,1.219c-0.152,0.51-0.381,0.914-0.686,1.219c-0.305,4.266-1.043,8.379-2.209,12.34
		c-1.169,3.961-2.971,7.465-5.408,10.512s-5.663,5.511-9.674,7.389c-4.013,1.878-8.964,2.818-14.854,2.818
		c-6.094,0-11.197-1.043-15.311-3.123s-7.415-4.799-9.902-8.15c-2.49-3.352-4.266-7.16-5.332-11.426s-1.6-8.631-1.6-13.102V98.262
		c0-4.468,0.533-8.836,1.6-13.102s2.842-8.074,5.332-11.426c2.487-3.352,5.789-6.067,9.902-8.15
		c4.113-2.081,9.217-3.123,15.311-3.123s11.171,1.042,15.234,3.123c4.061,2.083,7.362,4.799,9.902,8.15
		c2.537,3.352,4.342,7.16,5.408,11.426s1.6,8.634,1.6,13.102V133.91z M132.844,127.664V98.262c0-3.554-0.407-7.107-1.219-10.664
		c-0.814-3.554-2.209-6.727-4.189-9.521c-1.98-2.792-4.646-5.077-7.998-6.855c-3.352-1.776-7.517-2.666-12.492-2.666
		c-4.875,0-8.988,0.89-12.34,2.666c-3.352,1.778-6.018,4.063-7.998,6.855c-1.98,2.795-3.404,5.968-4.266,9.521
		c-0.864,3.557-1.295,7.11-1.295,10.664v29.402H132.844z"/>
	<path d="M191.268,218.766c0.404,0.814,0.609,1.424,0.609,1.828c0,1.116-0.407,2.057-1.219,2.818
		c-0.814,0.762-1.778,1.143-2.895,1.143c-1.119,0-2.083-0.381-2.895-1.143c-0.814-0.762-1.219-1.702-1.219-2.818
		c0-0.812,0.1-1.421,0.305-1.828L151.963,69.621c-0.51-0.305-0.864-0.762-1.066-1.371c-0.205-0.609-0.305-1.219-0.305-1.828
		c0-1.116,0.404-2.057,1.219-2.818c0.812-0.762,1.775-1.143,2.895-1.143c1.116,0,2.08,0.381,2.895,1.143
		c0.812,0.762,1.219,1.702,1.219,2.818c0,0.712-0.255,1.423-0.762,2.133l29.707,136.805l29.402-136.805
		c-0.205-0.305-0.305-0.659-0.305-1.066c0-0.405,0-0.762,0-1.066c0-1.116,0.381-2.057,1.143-2.818s1.699-1.143,2.818-1.143
		c1.116,0,2.08,0.381,2.895,1.143c0.812,0.762,1.219,1.702,1.219,2.818c0,1.423-0.51,2.49-1.523,3.199L191.268,218.766z"/>
	<path d="M302.25,133.91h-58.043v54.844c0,3.656,0.431,7.263,1.295,10.816c0.861,3.557,2.285,6.729,4.266,9.521
		c1.98,2.795,4.646,5.054,7.998,6.779c3.352,1.729,7.465,2.59,12.34,2.59c4.772,0,8.783-0.762,12.035-2.285
		c3.249-1.523,5.865-3.527,7.846-6.018c1.98-2.487,3.428-5.355,4.342-8.607c0.914-3.249,1.471-6.601,1.676-10.055
		c-0.305-0.305-0.56-0.709-0.762-1.219c-0.205-0.507-0.305-0.914-0.305-1.219c0-1.116,0.404-2.08,1.219-2.895
		c0.812-0.812,1.775-1.219,2.895-1.219c1.116,0,2.08,0.407,2.895,1.219c0.812,0.814,1.219,1.778,1.219,2.895
		c0,0.305-0.076,0.712-0.229,1.219c-0.152,0.51-0.381,0.914-0.686,1.219c-0.305,4.266-1.043,8.379-2.209,12.34
		c-1.169,3.961-2.971,7.465-5.408,10.512s-5.663,5.511-9.674,7.389c-4.014,1.878-8.965,2.818-14.854,2.818
		c-6.094,0-11.197-1.043-15.311-3.123s-7.415-4.799-9.902-8.15c-2.49-3.352-4.266-7.16-5.332-11.426s-1.6-8.631-1.6-13.102V98.262
		c0-4.468,0.533-8.836,1.6-13.102s2.842-8.074,5.332-11.426c2.487-3.352,5.789-6.067,9.902-8.15
		c4.113-2.081,9.217-3.123,15.311-3.123s11.171,1.042,15.234,3.123c4.061,2.083,7.362,4.799,9.902,8.15
		c2.537,3.352,4.342,7.16,5.408,11.426s1.6,8.634,1.6,13.102V133.91z M296.004,127.664V98.262c0-3.554-0.407-7.107-1.219-10.664
		c-0.814-3.554-2.209-6.727-4.189-9.521c-1.98-2.792-4.646-5.077-7.998-6.855c-3.352-1.776-7.518-2.666-12.492-2.666
		c-4.875,0-8.988,0.89-12.34,2.666c-3.352,1.778-6.018,4.063-7.998,6.855c-1.98,2.795-3.404,5.968-4.266,9.521
		c-0.864,3.557-1.295,7.11-1.295,10.664v29.402H296.004z"/>
	<path d="M331.195,218.004c0.609,0.814,0.914,1.676,0.914,2.59c0,1.116-0.381,2.057-1.143,2.818s-1.702,1.143-2.818,1.143
		c-1.119,0-2.083-0.381-2.895-1.143c-0.814-0.762-1.219-1.702-1.219-2.818c0-0.914,0.305-1.775,0.914-2.59V6.855
		c-0.609-0.914-0.914-1.828-0.914-2.742c0-1.116,0.404-2.081,1.219-2.895C326.065,0.407,327.029,0,328.148,0
		c1.116,0,2.057,0.407,2.818,1.219c0.762,0.814,1.143,1.778,1.143,2.895c0,0.914-0.305,1.828-0.914,2.742V218.004z"/>
	<path d="M468.457,189.973c0,4.471-0.533,8.786-1.6,12.949c-1.066,4.166-2.871,7.846-5.408,11.045
		c-2.54,3.199-5.865,5.766-9.979,7.693s-9.27,2.895-15.463,2.895c-5.789,0-10.69-0.864-14.701-2.59
		c-4.014-1.726-7.289-4.037-9.826-6.932c-2.54-2.895-4.444-6.27-5.713-10.131c-1.271-3.858-2.007-7.869-2.209-12.035
		c-0.305-0.404-0.533-0.861-0.686-1.371c-0.152-0.507-0.229-1.014-0.229-1.523c0-1.116,0.404-2.057,1.219-2.818
		c0.812-0.762,1.775-1.143,2.895-1.143c1.116,0,2.057,0.381,2.818,1.143s1.143,1.702,1.143,2.818c0,0.51-0.076,1.017-0.229,1.523
		c-0.152,0.51-0.381,0.967-0.686,1.371c0.1,3.454,0.659,6.729,1.676,9.826c1.014,3.1,2.563,5.815,4.646,8.15
		c2.08,2.338,4.746,4.189,7.998,5.561c3.249,1.371,7.21,2.057,11.883,2.057c4.975,0,9.141-0.785,12.492-2.361
		c3.352-1.573,6.041-3.706,8.074-6.398c2.03-2.689,3.478-5.736,4.342-9.141c0.861-3.401,1.295-6.932,1.295-10.588v-88.969
		c0-3.656-0.434-7.236-1.295-10.74c-0.864-3.504-2.338-6.627-4.418-9.369c-2.083-2.742-4.875-4.951-8.379-6.627
		s-7.846-2.514-13.025-2.514h-5.637v-6.246h8.379c4.975,0,9.064-0.862,12.264-2.59c3.199-1.726,5.687-4.011,7.465-6.855
		c1.775-2.842,2.994-6.067,3.656-9.674c0.659-3.604,0.99-7.236,0.99-10.893c0-3.554-0.434-7.084-1.295-10.588
		c-0.864-3.504-2.312-6.627-4.342-9.369c-2.033-2.742-4.723-4.975-8.074-6.703c-3.352-1.726-7.518-2.59-12.492-2.59
		c-4.673,0-8.634,0.686-11.883,2.057c-3.252,1.371-5.918,3.226-7.998,5.561c-2.083,2.337-3.633,5.054-4.646,8.15
		c-1.017,3.099-1.576,6.375-1.676,9.826c0.305,0.305,0.533,0.712,0.686,1.219c0.152,0.509,0.229,1.017,0.229,1.523
		c0,1.119-0.434,2.083-1.295,2.895c-0.864,0.814-1.752,1.219-2.666,1.219c-1.119,0-2.083-0.405-2.895-1.219
		c-0.814-0.812-1.219-1.776-1.219-2.895c0-0.507,0.076-1.014,0.229-1.523c0.152-0.507,0.381-0.914,0.686-1.219
		c0.202-4.266,0.938-8.303,2.209-12.111c1.269-3.809,3.173-7.184,5.713-10.131c2.537-2.944,5.812-5.28,9.826-7.008
		C425.317,0.864,430.219,0,436.008,0c5.991,0,11.068,1.017,15.234,3.047c4.163,2.033,7.515,4.723,10.055,8.074
		c2.537,3.352,4.365,7.16,5.484,11.426c1.116,4.266,1.676,8.583,1.676,12.949c0,3.352-0.281,6.729-0.838,10.131
		c-0.56,3.404-1.523,6.577-2.895,9.521c-1.371,2.947-3.226,5.587-5.561,7.922c-2.338,2.337-5.282,4.166-8.836,5.484
		c3.352,1.523,6.17,3.404,8.455,5.637c2.285,2.235,4.163,4.749,5.637,7.541c1.471,2.795,2.514,5.842,3.123,9.141
		c0.609,3.302,0.914,6.68,0.914,10.131V189.973z"/>
</g>
</svg>
