<?xml version="1.0" encoding="utf-8"?>
<!-- Generator: Adobe Illustrator 15.0.2, SVG Export Plug-In . SVG Version: 6.00 Build 0)  -->
<!DOCTYPE svg PUBLIC "-//W3C//DTD SVG 1.0//EN" "http://www.w3.org/TR/2001/REC-SVG-20010904/DTD/svg10.dtd">
<svg version="1.0" id="Layer_1" xmlns="http://www.w3.org/2000/svg" xmlns:xlink="http://www.w3.org/1999/xlink" x="0px" y="0px"
	 width="473.789px" height="224.555px" viewBox="0 0 473.789 224.555" enable-background="new 0 0 473.789 224.555"
	 xml:space="preserve">
<g>
	<path d="M61.09,215.262c0.914-0.609,1.878-0.914,2.895-0.914c1.116,0,2.057,0.407,2.818,1.219c0.762,0.814,1.143,1.778,1.143,2.895
		c0,1.119-0.381,2.057-1.143,2.818s-1.702,1.143-2.818,1.143c-1.017,0-1.98-0.305-2.895-0.914H0.914V6.855
		C0.305,5.941,0,5.027,0,4.113c0-1.116,0.405-2.081,1.219-2.895C2.03,0.407,2.995,0,4.113,0C5.229,0,6.17,0.407,6.932,1.219
		c0.762,0.814,1.143,1.778,1.143,2.895c0,0.914-0.305,1.828-0.914,2.742v208.406H61.09z"/>
	<path d="M139.09,133.91H81.047v54.844c0,3.656,0.431,7.263,1.295,10.816c0.862,3.557,2.285,6.729,4.266,9.521
		c1.98,2.795,4.646,5.054,7.998,6.779c3.352,1.729,7.465,2.59,12.34,2.59c4.772,0,8.784-0.762,12.035-2.285
		c3.249-1.523,5.865-3.527,7.846-6.018c1.98-2.487,3.428-5.355,4.342-8.607c0.914-3.249,1.471-6.601,1.676-10.055
		c-0.305-0.305-0.56-0.709-0.762-1.219c-0.205-0.507-0.305-0.914-0.305-1.219c0-1.116,0.404-2.08,1.219-2.895
		c0.812-0.812,1.775-1.219,2.895-1.219c1.116,0,2.08,0.407,2.895,1.219c0.812,0.814,1.219,1.778,1.219,2.895
		c0,0.305-0.076,0.712-0.229,1.219c-0.152,0.51-0.381,0.914-0.686,1.219c-0.305,4.266-1.043,8.379-2.209,12.34
		c-1.169,3.961-2.971,7.465-5.408,10.512s-5.663,5.511-9.674,7.389c-4.013,1.878-8.964,2.818-14.854,2.818
		c-6.094,0-11.197-1.043-15.311-3.123s-7.415-4.799-9.902-8.15c-2.49-3.352-4.266-7.16-5.332-11.426s-1.6-8.631-1.6-13.102V98.262
		c0-4.468,0.533-8.836,1.6-13.102s2.842-8.074,5.332-11.426c2.487-3.352,5.789-6.067,9.902-8.15
		c4.113-2.081,9.217-3.123,15.311-3.123s11.171,1.042,15.234,3.123c4.061,2.083,7.362,4.799,9.902,8.15
		c2.537,3.352,4.342,7.16,5.408,11.426s1.6,8.634,1.6,13.102V133.91z M132.844,127.664V98.262c0-3.554-0.407-7.107-1.219-10.664
		c-0.814-3.554-2.209-6.727-4.189-9.521c-1.98-2.792-4.646-5.077-7.998-6.855c-3.352-1.776-7.517-2.666-12.492-2.666
		c-4.875,0-8.988,0.89-12.34,2.666c-3.352,1.778-6.018,4.063-7.998,6.855c-1.98,2.795-3.404,5.968-4.266,9.521
		c-0.864,3.557-1.295,7.11-1.295,10.664v29.402H132.844z"/>
	<path d="M191.268,218.766c0.404,0.814,0.609,1.424,0.609,1.828c0,1.116-0.407,2.057-1.219,2.818
		c-0.814,0.762-1.778,1.143-2.895,1.143c-1.119,0-2.083-0.381-2.895-1.143c-0.814-0.762-1.219-1.702-1.219-2.818
		c0-0.812,0.1-1.421,0.305-1.828L151.963,69.621c-0.51-0.305-0.864-0.762-1.066-1.371c-0.205-0.609-0.305-1.219-0.305-1.828
		c0-1.116,0.404-2.057,1.219-2.818c0.812-0.762,1.775-1.143,2.895-1.143c1.116,0,2.08,0.381,2.895,1.143
		c0.812,0.762,1.219,1.702,1.219,2.818c0,0.712-0.255,1.423-0.762,2.133l29.707,136.805l29.402-136.805
		c-0.205-0.305-0.305-0.659-0.305-1.066c0-0.405,0-0.762,0-1.066c0-1.116,0.381-2.057,1.143-2.818s1.699-1.143,2.818-1.143
		c1.116,0,2.08,0.381,2.895,1.143c0.812,0.762,1.219,1.702,1.219,2.818c0,1.423-0.51,2.49-1.523,3.199L191.268,218.766z"/>
	<path d="M302.25,133.91h-58.043v54.844c0,3.656,0.431,7.263,1.295,10.816c0.861,3.557,2.285,6.729,4.266,9.521
		c1.98,2.795,4.646,5.054,7.998,6.779c3.352,1.729,7.465,2.59,12.34,2.59c4.772,0,8.783-0.762,12.035-2.285
		c3.249-1.523,5.865-3.527,7.846-6.018c1.98-2.487,3.428-5.355,4.342-8.607c0.914-3.249,1.471-6.601,1.676-10.055
		c-0.305-0.305-0.56-0.709-0.762-1.219c-0.205-0.507-0.305-0.914-0.305-1.219c0-1.116,0.404-2.08,1.219-2.895
		c0.812-0.812,1.775-1.219,2.895-1.219c1.116,0,2.08,0.407,2.895,1.219c0.812,0.814,1.219,1.778,1.219,2.895
		c0,0.305-0.076,0.712-0.229,1.219c-0.152,0.51-0.381,0.914-0.686,1.219c-0.305,4.266-1.043,8.379-2.209,12.34
		c-1.169,3.961-2.971,7.465-5.408,10.512s-5.663,5.511-9.674,7.389c-4.014,1.878-8.965,2.818-14.854,2.818
		c-6.094,0-11.197-1.043-15.311-3.123s-7.415-4.799-9.902-8.15c-2.49-3.352-4.266-7.16-5.332-11.426s-1.6-8.631-1.6-13.102V98.262
		c0-4.468,0.533-8.836,1.6-13.102s2.842-8.074,5.332-11.426c2.487-3.352,5.789-6.067,9.902-8.15
		c4.113-2.081,9.217-3.123,15.311-3.123s11.171,1.042,15.234,3.123c4.061,2.083,7.362,4.799,9.902,8.15
		c2.537,3.352,4.342,7.16,5.408,11.426s1.6,8.634,1.6,13.102V133.91z M296.004,127.664V98.262c0-3.554-0.407-7.107-1.219-10.664
		c-0.814-3.554-2.209-6.727-4.189-9.521c-1.98-2.792-4.646-5.077-7.998-6.855c-3.352-1.776-7.518-2.666-12.492-2.666
		c-4.875,0-8.988,0.89-12.34,2.666c-3.352,1.778-6.018,4.063-7.998,6.855c-1.98,2.795-3.404,5.968-4.266,9.521
		c-0.864,3.557-1.295,7.11-1.295,10.664v29.402H296.004z"/>
	<path d="M331.195,218.004c0.609,0.814,0.914,1.676,0.914,2.59c0,1.116-0.381,2.057-1.143,2.818s-1.702,1.143-2.818,1.143
		c-1.119,0-2.083-0.381-2.895-1.143c-0.814-0.762-1.219-1.702-1.219-2.818c0-0.914,0.305-1.775,0.914-2.59V6.855
		c-0.609-0.914-0.914-1.828-0.914-2.742c0-1.116,0.404-2.081,1.219-2.895C326.065,0.407,327.029,0,328.148,0
		c1.116,0,2.057,0.407,2.818,1.219c0.762,0.814,1.143,1.778,1.143,2.895c0,0.914-0.305,1.828-0.914,2.742V218.004z"/>
	<path d="M473.789,189.059c0,4.471-0.533,8.836-1.6,13.102s-2.871,8.051-5.408,11.35c-2.54,3.302-5.865,5.968-9.979,7.998
		s-9.27,3.047-15.463,3.047c-5.789,0-10.69-0.914-14.701-2.742c-4.014-1.828-7.289-4.266-9.826-7.312
		c-2.54-3.047-4.444-6.524-5.713-10.436c-1.271-3.908-2.007-7.998-2.209-12.264c-0.305-0.305-0.533-0.709-0.686-1.219
		c-0.152-0.507-0.229-1.014-0.229-1.523c0-1.116,0.381-2.08,1.143-2.895c0.762-0.812,1.699-1.219,2.818-1.219
		c1.116,0,2.08,0.407,2.895,1.219c0.812,0.814,1.219,1.778,1.219,2.895c0,1.017-0.305,1.828-0.914,2.438
		c0.1,3.352,0.659,6.653,1.676,9.902c1.014,3.252,2.563,6.12,4.646,8.607c2.08,2.49,4.746,4.521,7.998,6.094
		c3.249,1.576,7.21,2.361,11.883,2.361c4.975,0,9.141-0.861,12.492-2.59c3.352-1.726,6.041-3.984,8.074-6.779
		c2.03-2.792,3.478-5.941,4.342-9.445c0.861-3.504,1.295-7.031,1.295-10.588v-44.027c-2.643,4.471-6.146,7.922-10.512,10.359
		c-4.368,2.438-9.598,3.656-15.691,3.656c-5.994,0-11.071-1.014-15.234-3.047c-4.166-2.03-7.518-4.696-10.055-7.998
		c-2.54-3.299-4.368-7.084-5.484-11.35c-1.119-4.266-1.676-8.631-1.676-13.102V34.582c0-4.366,0.557-8.631,1.676-12.797
		c1.116-4.163,2.944-7.87,5.484-11.121c2.537-3.249,5.889-5.839,10.055-7.77C430.269,0.966,435.346,0,441.34,0
		c6.193,0,11.35,0.966,15.463,2.895c4.113,1.931,7.438,4.521,9.979,7.77c2.537,3.251,4.342,6.958,5.408,11.121
		c1.066,4.166,1.6,8.431,1.6,12.797v83.332v3.504V189.059z M415.137,123.246c0,3.557,0.431,7.11,1.295,10.664
		c0.861,3.557,2.309,6.729,4.342,9.521c2.03,2.795,4.723,5.054,8.074,6.779c3.352,1.729,7.515,2.59,12.492,2.59
		c4.772,0,8.783-0.785,12.035-2.361c3.249-1.573,5.915-3.656,7.998-6.246c2.08-2.59,3.58-5.508,4.494-8.76
		c0.914-3.249,1.471-6.601,1.676-10.055V34.887c0-3.656-0.434-7.21-1.295-10.664c-0.864-3.452-2.312-6.499-4.342-9.141
		c-2.033-2.64-4.723-4.772-8.074-6.398c-3.352-1.624-7.518-2.438-12.492-2.438c-4.978,0-9.141,0.814-12.492,2.438
		c-3.352,1.626-6.044,3.759-8.074,6.398c-2.033,2.642-3.48,5.689-4.342,9.141c-0.864,3.454-1.295,7.008-1.295,10.664V123.246z"/>
</g>
</svg>
